<?xml version="1.0" standalone="no"?>
<!DOCTYPE svg PUBLIC "-//W3C//DTD SVG 20010904//EN"
 "http://www.w3.org/TR/2001/REC-SVG-20010904/DTD/svg10.dtd">
<svg version="1.0" xmlns="http://www.w3.org/2000/svg"
 width="512.000000pt" height="512.000000pt" viewBox="0 0 512.000000 512.000000"
 preserveAspectRatio="xMidYMid meet">
<metadata>
Created by potrace 1.11, written by Peter Selinger 2001-2013
</metadata>
<g transform="translate(0.000000,512.000000) scale(0.100000,-0.100000)"
fill="#000000" stroke="none">
<path d="M2540 4455 c-519 -76 -977 -359 -1297 -803 -72 -99 -198 -346 -242
-473 -62 -182 -101 -414 -101 -608 l0 -100 64 24 c116 44 216 58 360 52 135
-5 204 -19 316 -63 147 -58 312 -181 395 -293 27 -38 47 -53 83 -65 187 -63
384 -252 452 -433 52 -140 67 -324 36 -457 -42 -180 -163 -352 -324 -459 -31
-22 -58 -40 -60 -42 -6 -6 100 -35 228 -62 117 -26 141 -27 370 -27 229 0 253
2 373 27 392 84 702 251 983 532 99 98 244 276 244 298 0 5 -26 6 -57 2 -132
-14 -405 29 -607 96 -310 104 -568 267 -792 502 -128 134 -216 259 -303 427
-161 313 -223 556 -222 875 0 236 33 426 111 650 34 96 118 275 169 363 l31
52 -62 -1 c-35 -1 -101 -7 -148 -14z"/>
<path d="M1204 2170 c-67 -10 -116 -26 -189 -63 -82 -40 -200 -161 -243 -248
-157 -317 4 -700 340 -810 72 -24 79 -24 458 -24 l385 0 67 33 c84 41 167 128
199 209 18 44 23 78 23 143 1 75 -3 93 -31 152 -62 131 -184 219 -315 226
l-68 4 -19 44 c-42 95 -126 192 -218 250 -103 67 -269 103 -389 84z"/>
</g>
</svg>
